<svg version="1.1" xmlns="http://www.w3.org/2000/svg" xmlns:xlink="http://www.w3.org/1999/xlink" width="48" height="48"><defs><linearGradient x1="14.49405" y1="14.22989" x2="75.93235" y2="76.19652" gradientUnits="userSpaceOnUse" id="color-1"><stop offset="1" stop-color="#000000" stop-opacity="0.72"></stop><stop offset="1" stop-color="#000000" stop-opacity="0"></stop></linearGradient><filter id="dropshadow-base"><feColorMatrix type="matrix" values="0 0 0 0 0  0 0 0 0 0  0 0 0 0 0  0 0 0 .8 0"></feColorMatrix> <feOffset dx="0" dy="1"></feOffset> <feGaussianBlur stdDeviation="1"></feGaussianBlur> <feComposite in="SourceGraphic"></feComposite></filter><filter id="dropshadow-banner" x="-10%" y="-10%" width="120%" height="130%"><feColorMatrix type="matrix" values="0 0 0 0 0  0 0 0 0 0  0 0 0 0 0  0 0 0 .4 0"></feColorMatrix> <feOffset dx="0" dy="1"></feOffset> <feGaussianBlur stdDeviation="0.5"></feGaussianBlur> <feComposite in="SourceGraphic"></feComposite></filter></defs><g fill="none" fill-rule="nonzero" stroke="none" stroke-width="none" stroke-linecap="butt" stroke-linejoin="miter" stroke-miterlimit="10" stroke-dasharray="" stroke-dashoffset="0" font-family="none" font-weight="none" font-size="none" text-anchor="none" style="mix-blend-mode: normal"><path d="M2,24c0,-12.15026 9.84974,-22 22,-22c12.15026,0 22,9.84974 22,22c0,12.15026 -9.84974,22 -22,22c-12.15026,0 -22,-9.84974 -22,-22z" id="base 1 5" fill="#3490ad" stroke-width="1"></path><path d="M25.95158,14.22989c0.13604,0 0.25844,0.05607 0.34779,0.14542l3.33956,3.33956l1.25144,-0.5051c0.1802,-0.07208 0.38338,-0.02599 0.51805,0.10868l13.51097,13.51097c-2.17187,6.65706 -7.4329,11.91809 -14.08996,14.08996l-14.23784,-14.23784c-0.02961,-0.02961 -0.05591,-0.06351 -0.07793,-0.10138l-1.95402,-3.38534c-0.12213,-0.21494 -0.06839,-0.47874 0.11724,-0.62529l2.06149,-1.61695c-0.03908,-0.31264 -0.06839,-0.63017 -0.06839,-0.95259c0,-0.18418 0.00956,-0.36676 0.02505,-0.54775l-2.05582,-2.05582c-0.15473,-0.15473 -0.193,-0.39617 -0.07958,-0.59126l1.95402,-3.38534c0.12213,-0.21006 0.37615,-0.2931 0.59598,-0.21006l2.43276,0.9819c0.50316,-0.3908 1.05517,-0.71322 1.65115,-0.96236l0.36638,-2.58908c0.03908,-0.2296 0.23937,-0.41034 0.48362,-0.41034z" fill="url(#color-1)" stroke-width="1"></path><path d="M31.25675,24.95259c0.03908,-0.31264 0.06839,-0.63017 0.06839,-0.95259c0,-0.32241 -0.02931,-0.63994 -0.06839,-0.95259l2.06638,-1.61695c0.18563,-0.14655 0.23937,-0.41034 0.11724,-0.62529l-1.95402,-3.38534c-0.12213,-0.21006 -0.37615,-0.29799 -0.59598,-0.21006l-2.43276,0.9819c-0.50316,-0.38592 -1.05517,-0.71322 -1.65115,-0.96236l-0.36638,-2.58908c-0.04397,-0.2296 -0.24425,-0.41034 -0.48851,-0.41034h-3.90804c-0.24425,0 -0.44454,0.18075 -0.48362,0.41034l-0.36638,2.58908c-0.59598,0.24914 -1.14799,0.57155 -1.65115,0.96236l-2.43276,-0.9819c-0.21983,-0.08305 -0.47385,0 -0.59598,0.21006l-1.95402,3.38534c-0.12213,0.21006 -0.06839,0.47385 0.11724,0.62529l2.06149,1.61695c-0.03908,0.31264 -0.06839,0.63017 -0.06839,0.95259c0,0.32241 0.02931,0.63994 0.06839,0.95259l-2.06149,1.61695c-0.18563,0.14655 -0.23937,0.41034 -0.11724,0.62529l1.95402,3.38534c0.12213,0.21006 0.37615,0.29799 0.59598,0.21006l2.43276,-0.9819c0.50316,0.38592 1.05517,0.71322 1.65115,0.96236l0.36638,2.58908c0.03908,0.2296 0.23937,0.41034 0.48362,0.41034h3.90804c0.24425,0 0.44454,-0.18075 0.48362,-0.41034l0.36638,-2.58908c0.59598,-0.24914 1.14799,-0.57155 1.65115,-0.96236l2.43276,0.9819c0.21983,0.08305 0.47385,0 0.59598,-0.21006l1.95402,-3.38534c0.12213,-0.21006 0.06839,-0.47385 -0.11724,-0.62529zM23.99756,27.41954c-1.89052,0 -3.41954,-1.52902 -3.41954,-3.41954c0,-1.89052 1.52902,-3.41954 3.41954,-3.41954c1.89052,0 3.41954,1.52902 3.41954,3.41954c0,1.89052 -1.52902,3.41954 -3.41954,3.41954z" fill="none" stroke-width="0"></path><path d="M33.31824,26.56954c0.18563,0.15144 0.23937,0.41523 0.11724,0.62529l-1.95402,3.38534c-0.12213,0.21006 -0.37615,0.2931 -0.59598,0.21006l-2.43276,-0.9819c-0.50316,0.3908 -1.05517,0.71322 -1.65115,0.96236l-0.36638,2.58908c-0.03908,0.2296 -0.23937,0.41034 -0.48362,0.41034h-3.90804c-0.24425,0 -0.44454,-0.18075 -0.48362,-0.41034l-0.36638,-2.58908c-0.59598,-0.24914 -1.14799,-0.57644 -1.65115,-0.96236l-2.43276,0.9819c-0.21983,0.08793 -0.47385,0 -0.59598,-0.21006l-1.95402,-3.38534c-0.12213,-0.21494 -0.06839,-0.47874 0.11724,-0.62529l2.06149,-1.61695c-0.03908,-0.31264 -0.06839,-0.63017 -0.06839,-0.95259c0,-0.32241 0.02931,-0.63994 0.06839,-0.95259l-2.06149,-1.61695c-0.18563,-0.15144 -0.23937,-0.41523 -0.11724,-0.62529l1.95402,-3.38534c0.12213,-0.21006 0.37615,-0.2931 0.59598,-0.21006l2.43276,0.9819c0.50316,-0.3908 1.05517,-0.71322 1.65115,-0.96236l0.36638,-2.58908c0.03908,-0.2296 0.23937,-0.41034 0.48362,-0.41034h3.90804c0.24425,0 0.44454,0.18075 0.48851,0.41034l0.36638,2.58908c0.59598,0.24914 1.14799,0.57644 1.65115,0.96236l2.43276,-0.9819c0.21983,-0.08793 0.47385,0 0.59598,0.21006l1.95402,3.38534c0.12213,0.21494 0.06839,0.47874 -0.11724,0.62529l-2.06638,1.61695c0.03908,0.31264 0.06839,0.63017 0.06839,0.95259c0,0.32241 -0.02931,0.63994 -0.06839,0.95259zM27.4171,24c0,-1.89052 -1.52902,-3.41954 -3.41954,-3.41954c-1.89052,0 -3.41954,1.52902 -3.41954,3.41954c0,1.89052 1.52902,3.41954 3.41954,3.41954c1.89052,0 3.41954,-1.52902 3.41954,-3.41954z" fill="#ffffff" stroke-width="0"></path><path d="M2,24c0,-12.15026 9.84974,-22 22,-22c12.15026,0 22,9.84974 22,22c0,12.15026 -9.84974,22 -22,22c-12.15026,0 -22,-9.84974 -22,-22z" id="base 1 1 1" fill="none" stroke-width="1"></path><g fill="#000000" stroke-width="1" font-family="Roboto, sans-serif" font-weight="normal" font-size="14" text-anchor="start"></g><rect x="2" y="2" width="44" height="22" fill="none" stroke-width="1"></rect><path d="M2,24v-22h44v22z" fill="none" stroke-width="1"></path><path d="M2,24v-22h44v22z" fill="none" stroke-width="1"></path><path d="M2,24v-22h44v22z" fill="none" stroke-width="1"></path><path d="M2,24v-22h44v22z" fill="none" stroke-width="1"></path></g></svg>